# xmcd CD database file
#
# Track frame offsets:
#	150
#	12092
#	25895
#	38839
#	52955
#	68215
#	83272
#	97835
#	110712
#	123472
#	136982
#	150330
#	161052
#	172355
#	185965
#	198880
#	210692
#	224087
#
# Disc length: 3183 seconds
#
# Revision: 0
# Processed by: cddbd v1.5.2PL0 Copyright (c) Steve Scherf et al.
# Submitted via: CDex 1.70beta2
#
DISCID=fb0c6d12
DTITLE=Various Artist - Boogie Woogie Piano
DYEAR=2002
DGENRE=Jazz
TTITLE0=Albert Ammons and His Rhythm Kings - Margie
TTITLE1=Count Basie - One O'Clock Jump
TTITLE2=Meade 'Lux' Lewis - Honky Tonk Train Blues
TTITLE3='Cow Cow' Davenport - Cow Cow Blues
TTITLE4='Pine Top' Smith - Pine Top's Boogie Woogie
TTITLE5='Montana' Taylor - Detroit Rocks
TTITLE6=Speckled Red - The Dirty Dozen
TTITLE7=Jimmy Yancey - Yancey Stomp
TTITLE8=Pete Johnson - Roll'Em
TTITLE9=Albert Ammons - Boogie Woogie Stomp
TTITLE10=Big Maceo - Chicago Breakdown
TTITLE11=Glenn Lloyd - Chica Boo
TTITLE12=Art Tatum - St. Louis Blues
TTITLE13='Jay' McShann - Bucktown Boogie
TTITLE14=Kenny Kersey - Boogie Woogie Cocktail
TTITLE15=Joe Sullivan - Boogie Woogie Maxixe
TTITLE16=Albert Ammons and His Rhythm Kings - Mr. Bell Boogie
TTITLE17=Count Basie Quintet - Boogie Woogie
EXTD=YEAR: 2002
EXTT0=
EXTT1=
EXTT2=
EXTT3=
EXTT4=
EXTT5=
EXTT6=
EXTT7=
EXTT8=
EXTT9=
EXTT10=
EXTT11=
EXTT12=
EXTT13=
EXTT14=
EXTT15=
EXTT16=
EXTT17=
PLAYORDER=
